<svg id="Layer_1" data-name="Layer 1" xmlns="http://www.w3.org/2000/svg" viewBox="0 0 1071.51 295.29"><defs><style>.cls-1{fill:#fff;}</style></defs><title>HannahFell_Horizontal_Green</title><path class="cls-1" d="M317.32,214.66c-3.83,0-7.93,3.69-11.62,3.69-5.34,0-7.93-4.92-7.93-12.71a58.55,58.55,0,0,1,1.09-10.25C354.37,178,414,148.63,414,114.86c0-12.85-14.77-16.68-27.62-16.68-57.28,0-90.1,48.13-99.94,87.91-4.24,1.23-8.34,2.32-12.58,3.28,2.6-15.31,4.1-29.8,4.1-35.41,0-8.06-2.46-17-13.67-17-21.19.14-45,22.15-45,32.54,0,2.46,5.74,4.78,10.39,4.78,2.46,0,4.65-.68,5.61-2.19,3.83-6.42,13.53-14.49,20-14.49,3.42,0,6.15,2.19,6.15,7.8,0,7.24-1.64,17.22-3.83,27.34A214.07,214.07,0,0,1,219,196.62c-3.15,0-7.93.68-7.93,7.38,0,7,6.84,7.52,6.84,7.52,8.61,0,21.32-1.64,36.09-4.65-3.28,11.89-6.84,21.87-9.16,25a3,3,0,0,0-.27,1.5c0,4,6.69,4.93,10.8,4.93,6.28,0,11.75-16.55,15.72-35.28,4.24-.95,8.47-2.18,12.71-3.28a89,89,0,0,0-.54,10.25c0,16.41,5.33,27.9,16,27.9,11.62,0,20.92-12.86,20.92-19.56C320.19,216,319.37,214.66,317.32,214.66Zm65.89-104c7.52,0,12.58,3.83,12.58,9.57,0,17.09-42.65,43.89-92.69,60.84C314.45,149.86,343.57,110.62,383.21,110.62Z"/><path class="cls-1" d="M405.09,215.76c-3.28.13-7.25,1.91-10,1.91s-3.55-1.78-3.55-4.37c0-3,1.09-7.11,1.09-10.53,0-2.87-1.23-4-2.87-4a7.86,7.86,0,0,0-4.79,2.33c-11.48,10.66-26.11,18.73-34.18,18.73-4.37,0-6.15-1.37-6.15-3.28,0-6,16.95-18.32,27.89-18.32,5.2,0,10.94-6.43,10.94-11.21,0-2.74-1.91-4.93-6.84-4.93-25.29,0-50.72,24.75-50.72,40.2,0,7.11,5.33,12.3,18.32,12.3,19.42,0,30.9-10.25,33.09-10.25a.87.87,0,0,1,.82.68c2.18,4.79,6,6.57,10.39,6.57,9.16,0,20.23-7.93,20.23-12.31C408.78,217.53,408,215.76,405.09,215.76Z"/><path class="cls-1" d="M482.06,212.48c-2.73,0-11.48,5.6-17.22,5.6-3.28,0-3.56-2.87-3.56-4.37,0-4.52,2.46-7.25,2.46-12.31,0-5.33-4.65-6.56-9.43-6.56-10.12,0-25.84,12.58-28,12.58a1.12,1.12,0,0,1-1.09-1.23c.14-2.05,2.87-7.25,2.87-11.76,0-4-2.32-7.38-10.8-7.38-19.69,0-19.69,11.75-19.69,11.75,0,2.46,1.23,5.06,3.69,5.06,2.19,0,5.34-2.18,8.48-2.18,4,0,5.61,2.32,5.61,5.19,0,6-6.16,17.09-6.16,21.33,0,3.28,3.69,4.65,6.43,4.65a8.48,8.48,0,0,0,5.33-1.92c1.91-1.64,18.46-17,21.33-17,2.46,0,2.87,1.37,2.87,3.28,0,10.12.41,15.31,8.89,15.31,12.85,0,30.76-10,30.76-16.68C484.8,214,483.84,212.48,482.06,212.48Z"/><path class="cls-1" d="M708.33,217.94a9.74,9.74,0,0,0-2.73.55c-2.19.82-8.89,1.09-11.35,1.09-1.78,0-4.1-.27-4.1-4.37s3.14-14.22,3.14-16.82c0-4.51-3.69-5.88-7.93-5.88-9.7,0-25.84,10.26-32,15.18a2.21,2.21,0,0,1-.68.27c-.41,0-.55-.41-.55-1.09,1.37-14.49,19-67,19.83-70,.68-2.19,1.77-4.51,1.77-5.74,0-1.64-3.69-1.78-5.33-1.78-6.42,0-13.81,1-16.13,6.57-3.19,7.5-14,52-17.59,79.85-3.27.16-7.18,1.9-9.89,1.9s-3.56-1.78-3.56-4.37c0-3,1.1-7.11,1.1-10.53,0-2.87-1.23-4-2.87-4a7.83,7.83,0,0,0-4.79,2.33c-11.48,10.66-26.11,18.73-34.18,18.73-4.37,0-6.15-1.37-6.15-3.28,0-6,16.95-18.32,27.89-18.32,5.19,0,10.94-6.43,10.94-11.21,0-2.74-1.92-4.93-6.84-4.93-20.4,0-40.87,16.1-48,30.43a2.59,2.59,0,0,0-.63-.07c-2.74,0-11.49,5.6-17.23,5.6-3.28,0-3.55-2.87-3.55-4.37,0-4.52,2.46-7.25,2.46-12.31,0-5.33-4.65-6.56-9.44-6.56-10.11,0-25.83,12.58-28,12.58a1.12,1.12,0,0,1-1.1-1.23c.14-2.05,2.88-7.25,2.88-11.76,0-4-2.33-7.38-10.81-7.38-19.68,0-19.68,11.75-19.68,11.75,0,2.46,1.23,5.06,3.69,5.06,2.19,0,5.33-2.18,8.48-2.18,4,0,5.6,2.32,5.6,5.19,0,6-6.15,17.09-6.15,21.33,0,3.28,3.69,4.65,6.42,4.65a8.52,8.52,0,0,0,5.34-1.92c1.91-1.64,18.45-17,21.32-17,2.46,0,2.87,1.37,2.87,3.28,0,10.12.41,15.31,8.89,15.31,8.74,0,19.81-4.61,26-9.67.28,6.81,5.66,11.72,18.29,11.72,19.41,0,30.9-10.25,33.08-10.25a.86.86,0,0,1,.82.68c2.19,4.79,6,6.57,10.39,6.57,5.37,0,11.4-2.73,15.47-5.87-.1,1.58-.15,3-.15,4.36,0,1.92,5.88,3.69,10,3.69,2.6,0,4.51-.82,5.19-2.05,1.78-3.28,16.82-19,25-19,1.23,0,1.51.41,1.51,1.09,0,2-3.28,6.84-3.28,12.72,0,6.56,5.74,9.57,12.16,9.57,8.48,0,28-6.84,28-13.95A4.31,4.31,0,0,0,708.33,217.94Z"/><path class="cls-1" d="M820.44,192c0-2.05-1.92-2.33-4.1-2.33s-7.52.28-13.81.69c5.19-15.31,9.71-30.35,15.17-44.84,20.51-5.2,37.33-11.35,37.33-20.92,0-5.61-6-7.8-13.67-7.8-14.77,0-25.16,7.25-33,17.64a.67.67,0,0,0-.41-.14c-63.3,12-83.13,12.45-83.13,34.87,0,9.43,7,17.91,19.56,17.91,16.54,0,26-8.21,26-11.9,0-1.09-.55-1.77-2.46-1.77-4.37.41-7.79,1.36-13,1.36-3.28,0-12.44-.68-12.44-4.92,0-8.89,28.57-13.94,57-20.23,0,0-6.56,21-14.63,42-5.74.41-10.25.82-11.34.95-5.75.83-7.93,5.47-8.21,10.4,0,1.77.55,3.14,2,3.14s3.15-.82,4.51-1.09c2.06-.41,4.93-.69,7.93-1-5.33,12.58-10.93,23.38-15.44,26.8a3.88,3.88,0,0,0-1.51,2.59c0,5.06,10.67,6,16.82,6,1.64,0,4.1-1.37,5.88-4.1,4.78-10.8,8.88-21.6,12.57-32.27h3.29c5.33,0,7.92,1.23,11.21,1.23C816.75,204.27,820.44,196.48,820.44,192Z"/><path class="cls-1" d="M994.75,141.38c0-9.29-6-16-20-16-8.8,0-17.64,6.06-25.45,15.32-.29-8.94-6.33-15.32-19.94-15.32-20,0-40.6,31.58-48.39,61.11l-5.75.82a2.56,2.56,0,0,0-1.26.32c-2.14-3.07-7.15-5.1-16-5.1-24.47,0-42.52,19.68-42.52,35,0,9.85,7.52,18.05,25.43,18.05,15,0,31.17-7,31.17-16.13,0-2-1.5-3.42-4.24-3.42-5.06,0-8.2,5.88-18.18,5.88-11.9,0-11.9-3.28-11.9-3.28,18.2-2.26,34.55-14.78,37.11-24.43a6.79,6.79,0,0,0,3.09.64h1.09a74,74,0,0,0-1.37,14.08c0,15.59,6,27.07,20.92,27.07,7.79,0,18.32-4.92,18.32-11.35,0-2.46-.55-3.41-2.87-3.41-3.83,0-5.47,1.77-8.89,1.77-5.74,0-7.93-5.47-7.93-13.67a87.77,87.77,0,0,1,2.19-17.5A80.06,80.06,0,0,0,930,175.2c-4.32,11.72-6.9,23.7-6.9,33.72,0,15.59,6,27.07,20.92,27.07,7.79,0,18.32-4.92,18.32-11.35,0-2.46-.55-3.41-2.87-3.41-3.83,0-5.47,1.77-8.89,1.77-5.74,0-7.93-5.47-7.93-13.67a87,87,0,0,1,2.19-17.5C974.93,183.22,994.75,158.2,994.75,141.38Zm-158,66.72c-1.09,0-1.37-.55-1.37-1.37,0-6.42,11.08-13.67,16.68-13.67,1.92,0,3.83.41,3.83,2.05C855.85,200,843.41,208.1,836.71,208.1Zm65.9-28.57c6.15-20.78,15.86-41.29,20.23-41.29,3.42,0,5.47,3.42,5.47,8.34C928.31,155.6,921.34,170.23,902.61,179.53Zm65.62-41.29c3.42,0,5.47,3.42,5.47,8.34,0,9-7,23.65-25.7,32.95C954.15,158.75,963.86,138.24,968.23,138.24Z"/><path class="cls-1" d="M87.84,157.37l21.71-12.73,3.31,8.6c.26.67,1.27,2.63,2.78,5.34,4.48,8,13.39,22.57,20.72,30.61,0,0-14.06-12.5-22.08-22.11a306,306,0,0,0-.71,73.2H130.7S130.54,208,153.23,208c21.41.07,22.07,31.54,22.07,31.54l18.64.1c3.73-44.74-1.89-67-8.2-81.53-9-20.76-20.88-19.55-39.44-40h0l-5.57-7,2.1-6.76s9.82-3.58,21.66-13.21c2.12-1.72-15.86-5.49-26.7-3.28,11.32-16.5,41.77-33,41.77-33-27.41,4.63-50.7,17.9-63,27.21-26.45,20-41.17,47.78-39.66,70.51Zm13.89-48a5,5,0,1,1-5,5A5,5,0,0,1,101.73,109.38Z"/></svg>